<svg width="180" height="180" viewBox="0 0 180 180" fill="none" xmlns="http://www.w3.org/2000/svg">
    <path d="m143.629 112.45-30.042 15.512c-.736-5.425-5.201-9.629-10.639-9.629-2.018-.198-20.691.435-22.096-.407-7.527-2.2-21.306-5.892-29.03-5.892-6.732 0-18.245 5.75-26.711 10.565.504-4.287-1.906-8.338-6.396-8.384H6.977c-3.528 0-6.397 2.943-6.397 6.558v51.76c0 3.615 2.869 6.558 6.397 6.558h11.738c3.527 0 6.396-2.943 6.396-6.558v-4.339c4.927-3.186 23.575-13.753 45.188-6.936 1.994.628 3.932.948 5.757.948h18.625c3.204 0 6.382-.842 9.193-2.437l49.524-28.125c2.618-1.486 4.502-4.06 5.172-7.061 2.159-8.559-7.268-16.414-14.941-12.133zM6.977 172.533v-51.76h11.738l.004 51.76H6.977zm145.36-49.416c-.271 1.207-.994 2.197-2.037 2.789l-49.524 28.125a12.397 12.397 0 0 1-6.095 1.617H76.056c-1.186 0-2.49-.221-3.875-.66-20.797-6.558-38.672.896-47.07 5.589v-30.428c9.723-5.75 21.394-11.557 26.71-11.557 4.999 0 15.196 2.11 27.254 5.636 1.486.445 2.996.663 4.616.663h19.257c3.823-.126 5.872 5.183 3.106 7.871a4.287 4.287 0 0 1-3.106 1.322H75.625c-4.19.068-4.213 6.486 0 6.558h27.323c2.898 0 5.615-1.159 7.65-3.263.483-.449 35.908-19.069 35.908-19.069 2.996-1.678 6.712 1.453 5.831 4.807z" fill="url(#wji0iwqyfa)"/>
    <path d="m17.508 72.27-2.115 12.757a3.316 3.316 0 0 0 1.28 3.209c.99.734 2.299.822 3.372.24l11.039-6.007 11.038 6.007c2.231 1.309 5.169-.86 4.652-3.449L44.658 72.27l8.954-9.027a3.337 3.337 0 0 0 .798-3.356c-.378-1.181-1.375-2.046-2.576-2.225l-12.35-1.858-5.527-11.588a3.195 3.195 0 0 0-2.873-1.838 3.195 3.195 0 0 0-2.873 1.838l-5.528 11.588-12.35 1.858c-1.2.179-2.198 1.044-2.576 2.225a3.34 3.34 0 0 0 .798 3.356l8.953 9.027zm7.77-10.228a3.208 3.208 0 0 0 2.41-1.803l3.396-7.118 3.395 7.118a3.208 3.208 0 0 0 2.41 1.803l7.65 1.15-5.555 5.604a3.33 3.33 0 0 0-.91 2.888l1.305 7.874-6.796-3.698a3.15 3.15 0 0 0-2.998 0l-6.798 3.698 1.306-7.874a3.33 3.33 0 0 0-.91-2.888l-5.557-5.604 7.652-1.15z" fill="url(#thozjmuphb)"/>
    <path d="M70.488 57.662c-2.542.298-3.666 3.8-1.779 5.581l8.953 9.027-2.115 12.757a3.316 3.316 0 0 0 1.28 3.209c.99.734 2.298.822 3.372.24l11.039-6.007 11.038 6.007c2.231 1.31 5.169-.861 4.652-3.449l-2.116-12.757 8.954-9.027c1.88-1.776.771-5.288-1.779-5.581l-12.35-1.858-5.526-11.588a3.195 3.195 0 0 0-2.873-1.838 3.195 3.195 0 0 0-2.873 1.838l-5.528 11.588-12.35 1.858zm17.353 2.577 3.397-7.118 3.394 7.118a3.208 3.208 0 0 0 2.41 1.803l7.652 1.15-5.556 5.604a3.33 3.33 0 0 0-.91 2.888l1.305 7.874-6.796-3.699a3.151 3.151 0 0 0-2.998 0l-6.798 3.699 1.306-7.874a3.33 3.33 0 0 0-.91-2.888l-5.557-5.604 7.652-1.15a3.208 3.208 0 0 0 2.41-1.803z" fill="url(#t0xpt2vu2c)"/>
    <path d="M179.514 59.887c-.378-1.181-1.376-2.046-2.577-2.225l-12.35-1.858-5.527-11.588c-1.074-2.248-4.672-2.248-5.746 0l-5.526 11.588-12.351 1.858c-1.201.179-2.198 1.04-2.576 2.225a3.34 3.34 0 0 0 .798 3.356l8.952 9.027-2.114 12.757a3.316 3.316 0 0 0 1.28 3.209 3.135 3.135 0 0 0 3.372.24l11.038-6.007 11.039 6.007a3.127 3.127 0 0 0 3.371-.24 3.319 3.319 0 0 0 1.281-3.209l-2.116-12.757 8.954-9.027a3.339 3.339 0 0 0 .798-3.356zm-15.427 8.909a3.33 3.33 0 0 0-.91 2.888l1.305 7.874-6.796-3.698a3.15 3.15 0 0 0-2.998 0l-6.797 3.698 1.305-7.874a3.33 3.33 0 0 0-.91-2.888l-5.556-5.604 7.653-1.15a3.206 3.206 0 0 0 2.409-1.803l3.395-7.118 3.395 7.118a3.209 3.209 0 0 0 2.409 1.803l7.652 1.15-5.556 5.604z" fill="url(#k2lnylp5ud)"/>
    <path d="M47.585 29.895 45.47 42.65a3.32 3.32 0 0 0 1.28 3.208c.989.734 2.298.823 3.372.24l11.039-6.004 11.038 6.004c2.234 1.312 5.168-.86 4.652-3.448l-2.116-12.755 8.954-9.03a3.34 3.34 0 0 0 .798-3.355c-.378-1.185-1.376-2.047-2.576-2.226l-12.35-1.857-5.527-11.589A3.195 3.195 0 0 0 61.161 0a3.195 3.195 0 0 0-2.874 1.838L52.76 13.427l-12.35 1.857c-1.2.18-2.198 1.04-2.576 2.225a3.34 3.34 0 0 0 .798 3.356l8.953 9.03zm7.77-10.23a3.208 3.208 0 0 0 2.41-1.803l3.396-7.119 3.394 7.119a3.208 3.208 0 0 0 2.41 1.803l7.653 1.15-5.557 5.606a3.333 3.333 0 0 0-.91 2.889l1.305 7.874-6.796-3.699a3.151 3.151 0 0 0-2.998 0l-6.798 3.699 1.306-7.874a3.33 3.33 0 0 0-.91-2.889l-5.557-5.607 7.652-1.15z" fill="url(#a375i4pi6e)"/>
    <path d="m111.497 29.895-2.116 12.755a3.322 3.322 0 0 0 1.279 3.208 3.124 3.124 0 0 0 3.373.24l11.039-6.004 11.038 6.004c2.229 1.307 5.17-.858 4.652-3.448l-2.114-12.755 8.952-9.03a3.34 3.34 0 0 0 .798-3.355c-.378-1.185-1.375-2.047-2.576-2.226l-12.349-1.857-5.528-11.589c-1.074-2.248-4.672-2.248-5.746 0l-5.527 11.589-12.35 1.857c-1.201.18-2.199 1.04-2.577 2.225a3.342 3.342 0 0 0 .798 3.356l8.954 9.03zm7.771-10.23a3.209 3.209 0 0 0 2.409-1.803l3.395-7.119 3.396 7.119a3.209 3.209 0 0 0 2.41 1.803l7.651 1.15-5.556 5.606a3.33 3.33 0 0 0-.91 2.889l1.305 7.874c-1.106-.445-7.151-4.304-8.296-4.08-1.12-.231-7.234 3.652-8.295 4.08l1.305-7.874a3.334 3.334 0 0 0-.91-2.889l-5.558-5.607 7.654-1.15z" fill="url(#a965j1rpaf)"/>
    <defs>
        <linearGradient id="wji0iwqyfa" x1="79.732" y1="111.245" x2="79.732" y2="179.091" gradientUnits="userSpaceOnUse">
            <stop stop-color="#28B7EB"/>
            <stop offset="1" stop-color="#154992"/>
        </linearGradient>
        <linearGradient id="thozjmuphb" x1="31.084" y1="42.378" x2="31.084" y2="88.869" gradientUnits="userSpaceOnUse">
            <stop stop-color="#28B7EB"/>
            <stop offset="1" stop-color="#154992"/>
        </linearGradient>
        <linearGradient id="t0xpt2vu2c" x1="91.237" y1="42.378" x2="91.237" y2="88.869" gradientUnits="userSpaceOnUse">
            <stop stop-color="#28B7EB"/>
            <stop offset="1" stop-color="#154992"/>
        </linearGradient>
        <linearGradient id="k2lnylp5ud" x1="156.187" y1="42.53" x2="156.187" y2="88.859" gradientUnits="userSpaceOnUse">
            <stop stop-color="#28B7EB"/>
            <stop offset="1" stop-color="#154992"/>
        </linearGradient>
        <linearGradient id="a375i4pi6e" x1="61.161" y1="0" x2="61.161" y2="46.492" gradientUnits="userSpaceOnUse">
            <stop stop-color="#28B7EB"/>
            <stop offset="1" stop-color="#154992"/>
        </linearGradient>
        <linearGradient id="a965j1rpaf" x1="125.072" y1=".152" x2="125.072" y2="46.491" gradientUnits="userSpaceOnUse">
            <stop stop-color="#28B7EB"/>
            <stop offset="1" stop-color="#154992"/>
        </linearGradient>
    </defs>
</svg>
