<svg width="180" height="180" viewBox="0 0 180 180" fill="none" xmlns="http://www.w3.org/2000/svg">
    <g clip-path="url(#2wm98curta)">
        <path d="M107.502 96.793a3.522 3.522 0 1 0-6.529 2.648l.049.123a3.525 3.525 0 0 0 6.531-2.648l-.051-.123z" fill="url(#4yzqfufb0b)"/>
        <path d="m176.052 51.793-4.845-5.173a3.523 3.523 0 1 0-5.143 4.818l4.86 5.19.034.035a5.32 5.32 0 0 1 1.496 3.829 5.314 5.314 0 0 1-1.66 3.76l-.295.283a5.334 5.334 0 0 1-3.823 1.475 5.32 5.32 0 0 1-3.453-1.373l-29.744-31.252a5.362 5.362 0 0 1 .587-7.094l.295-.282a5.36 5.36 0 0 1 7.569.183l4.768 5.004a3.523 3.523 0 1 0 5.101-4.86l-4.765-5.004c-4.718-4.95-12.583-5.141-17.532-.426l-.296.283a12.322 12.322 0 0 0-3.844 8.677 12.36 12.36 0 0 0 .984 5.165l-11.094 10.427c-2.866 2.693-6.725 4.108-10.876 4-4.119-.117-8.244.95-11.816 3.03l-6.248-2.005a18.076 18.076 0 0 0-10.806-.04 11.082 11.082 0 0 1-11.121-2.76L54.233 37.528a12.387 12.387 0 0 0 1.048-5.007c0-3.311-1.29-6.427-3.632-8.769l-.288-.288c-4.836-4.835-12.703-4.834-17.537 0L4.046 53.243a12.314 12.314 0 0 0-3.633 8.768 12.32 12.32 0 0 0 3.631 8.77l.289.287A12.315 12.315 0 0 0 13.1 74.7h.034a12.672 12.672 0 0 0 2.068-.175l16 16a5.575 5.575 0 0 1 1.644 3.97c0 3.381 1.317 6.561 3.708 8.952.01.008.018.017.026.026l.529.517-5.826 5.827c-4.23 4.23-4.23 11.111 0 15.34l.724.725a10.8 10.8 0 0 0 7.452 3.17 10.771 10.771 0 0 0 3.155 6.956l.724.724a10.777 10.777 0 0 0 7.672 3.178h.048a10.776 10.776 0 0 0 3.134 6.704l.726.724a10.774 10.774 0 0 0 7.431 3.175 10.802 10.802 0 0 0 3.155 7.05l.724.725a10.777 10.777 0 0 0 7.671 3.176 10.78 10.78 0 0 0 7.67-3.176l6.735-6.735 6.373 6.373a11.287 11.287 0 0 0 8.033 3.327 11.29 11.29 0 0 0 8.033-3.327 11.286 11.286 0 0 0 3.327-8.033v-.084a11.279 11.279 0 0 0 7.397-3.309 11.329 11.329 0 0 0 3.322-8.125 11.31 11.31 0 0 0 7.435-3.306 11.327 11.327 0 0 0 3.318-7.74 11.323 11.323 0 0 0 7.827-3.319c4.083-4.084 4.401-10.529.956-14.982 1.852-2.711 2.932-5.967 3.098-9.45l.365-7.676a10.927 10.927 0 0 1 3.042-7.055l11.977-12.444a12.47 12.47 0 0 0 4.008.658 12.32 12.32 0 0 0 8.545-3.422l.296-.283a12.315 12.315 0 0 0 3.844-8.71 12.335 12.335 0 0 0-3.449-8.853zM13.116 67.653h-.014a5.317 5.317 0 0 1-3.786-1.568l-.289-.288a5.318 5.318 0 0 1-1.567-3.785c0-1.43.556-2.775 1.569-3.786l29.777-29.778a5.337 5.337 0 0 1 3.786-1.564c1.37 0 2.742.52 3.786 1.564l.287.288a5.359 5.359 0 0 1 0 7.571L16.848 66.124a5.313 5.313 0 0 1-3.732 1.53zm23.15 52.522a3.776 3.776 0 0 1-1.113-2.688 3.77 3.77 0 0 1 1.114-2.687l15.127-15.127a3.77 3.77 0 0 1 2.687-1.114c1.015 0 1.97.395 2.686 1.112l.726.726a3.777 3.777 0 0 1 1.114 2.688c0 1.015-.397 1.97-1.114 2.687l-15.127 15.127a3.805 3.805 0 0 1-5.375 0l-.724-.724zm12.056 11.574-.724-.724a3.774 3.774 0 0 1-1.114-2.688c0-1.016.395-1.97 1.114-2.687l15.127-15.127a3.77 3.77 0 0 1 2.687-1.114c1.015 0 1.97.395 2.688 1.114l.724.724a3.804 3.804 0 0 1 0 5.375l-15.127 15.127a3.771 3.771 0 0 1-2.687 1.114 3.771 3.771 0 0 1-2.688-1.114zm10.853 9.882a3.78 3.78 0 0 1-1.112-2.688c0-1.017.395-1.97 1.112-2.688l15.127-15.126a3.79 3.79 0 0 1 2.689-1.113 3.79 3.79 0 0 1 2.686 1.111l.725.726a3.776 3.776 0 0 1 1.114 2.687 3.777 3.777 0 0 1-1.114 2.688l-15.126 15.127a3.774 3.774 0 0 1-2.688 1.113 3.774 3.774 0 0 1-2.688-1.113l-.725-.724zm17.411 11.672a3.771 3.771 0 0 1-2.687 1.114 3.777 3.777 0 0 1-2.69-1.114l-.723-.724a3.775 3.775 0 0 1-1.113-2.688c0-1.015.395-1.97 1.113-2.687l14.643-14.642c.043-.04.086-.08.128-.123a4.286 4.286 0 0 1 3.05-1.262c1.078 0 2.094.392 2.888 1.109.058.067.118.131.18.196l.539.536a3.806 3.806 0 0 1-.2 5.158l-15.128 15.127zm29.173-.362a4.28 4.28 0 0 1-3.05 1.264 4.277 4.277 0 0 1-3.05-1.264l-6.372-6.372 3.41-3.408a10.784 10.784 0 0 0 2.196-3.166l6.507 6.504c.121.121.246.239.371.355a4.284 4.284 0 0 1 1.252 3.037c0 1.152-.45 2.236-1.264 3.05zm32.627-33.915a4.319 4.319 0 0 1-6.101 0l-14.402-14.402a3.5 3.5 0 0 0-1.251-.807 3.524 3.524 0 0 0-3.794 5.766l14.403 14.401a4.323 4.323 0 0 1 0 6.101 4.319 4.319 0 0 1-6.101 0l-14.401-14.403a3.524 3.524 0 0 0-4.983 4.983l.094.096c.072.087.149.172.231.254l14.401 14.401a4.318 4.318 0 0 1 0 6.1 4.283 4.283 0 0 1-3.05 1.264 4.28 4.28 0 0 1-2.813-1.044l-14.28-14.279c-.072-.073-.146-.144-.22-.215l-.147-.148a10.813 10.813 0 0 0-7.432-3.169 10.802 10.802 0 0 0-3.155-7.054l-.724-.726a10.784 10.784 0 0 0-7.67-3.178l-.05.002a10.77 10.77 0 0 0-3.135-6.705l-.724-.724a10.815 10.815 0 0 0-7.452-3.17 10.767 10.767 0 0 0-3.154-6.955l-.725-.725c-4.23-4.23-11.112-4.23-15.342 0l-4.316 4.316-.567-.555a5.58 5.58 0 0 1-1.633-3.957 12.58 12.58 0 0 0-3.707-8.952L21.792 71.148 49.837 43.1l9.565 9.564a18.115 18.115 0 0 0 18.176 4.514 11.057 11.057 0 0 1 6.596.02l1.74.559-16.19 15.85c-3.452 3.378-4.448 8.76-2.423 13.087 1.62 3.465 5.065 6.11 8.987 6.9 4.818.972 8.787-1.038 12.13-2.997 2.061-1.208 3.664-2.832 5.078-4.265.947-.959 1.84-1.864 2.777-2.567 1.38-1.037 2.98-1.641 4.5-1.7 1.542-.059 3.493.627 5.373 1.293l.549.194c2.517.882 4.676 2.257 6.61 4.212l10.361 10.397c.096.125.203.247.317.363l14.403 14.401a4.32 4.32 0 0 1 0 6.1zm7.366-39.067a17.972 17.972 0 0 0-5.002 11.607l-.366 7.674c-.08 1.642-.474 3.19-1.149 4.559-20.192-20.261-20.912-20.984-20.93-21-2.658-2.687-5.78-4.67-9.278-5.896l-.53-.188c-2.271-.803-5.095-1.811-8-1.691-2.936.113-5.94 1.217-8.455 3.106-1.355 1.018-2.475 2.153-3.56 3.252-1.218 1.232-2.367 2.396-3.627 3.135-2.906 1.703-5.011 2.605-7.174 2.169-1.746-.351-3.316-1.521-3.998-2.979-.765-1.635-.358-3.765.97-5.065l16.544-16.197a30.675 30.675 0 0 1 3.883-3.213l.024-.018a15.26 15.26 0 0 1 9.08-2.712c6.008.166 11.663-1.934 15.894-5.91l10.559-9.923 26.33 27.638-11.215 11.652z" fill="url(#3pb3p2gj1c)"/>
        <path d="M90.67 43.758a3.524 3.524 0 0 0 3.523-3.524v-7.706a3.523 3.523 0 0 0-7.048 0v7.706a3.524 3.524 0 0 0 3.524 3.524z" fill="url(#e09rz8m3hd)"/>
        <path d="M75.98 41.598a3.518 3.518 0 0 0 2.492 1.031 3.525 3.525 0 0 0 2.49-6.016l-5.448-5.448a3.526 3.526 0 0 0-4.983 0 3.525 3.525 0 0 0 0 4.984l5.449 5.449z" fill="url(#fcc96rl4je)"/>
        <path d="M102.502 42.63a3.52 3.52 0 0 0 2.492-1.032l5.449-5.45a3.525 3.525 0 0 0-4.983-4.984l-5.449 5.45a3.525 3.525 0 0 0 2.491 6.015z" fill="url(#1ab43hdf6f)"/>
        <path d="M156.027 40.51a3.523 3.523 0 1 0 6.529-2.65l-.049-.12a3.523 3.523 0 1 0-6.53 2.647l.05.123z" fill="url(#5kvd2l7p7g)"/>
    </g>
    <defs>
        <linearGradient id="4yzqfufb0b" x1="104.263" y1="94.593" x2="104.263" y2="101.763" gradientUnits="userSpaceOnUse">
            <stop stop-color="#28B7EB"/>
            <stop offset="1" stop-color="#154992"/>
        </linearGradient>
        <linearGradient id="3pb3p2gj1c" x1="89.958" y1="17.491" x2="89.958" y2="161.464" gradientUnits="userSpaceOnUse">
            <stop stop-color="#28B7EB"/>
            <stop offset="1" stop-color="#154992"/>
        </linearGradient>
        <linearGradient id="e09rz8m3hd" x1="90.669" y1="29.005" x2="90.669" y2="43.758" gradientUnits="userSpaceOnUse">
            <stop stop-color="#28B7EB"/>
            <stop offset="1" stop-color="#154992"/>
        </linearGradient>
        <linearGradient id="fcc96rl4je" x1="75.747" y1="30.134" x2="75.747" y2="42.629" gradientUnits="userSpaceOnUse">
            <stop stop-color="#28B7EB"/>
            <stop offset="1" stop-color="#154992"/>
        </linearGradient>
        <linearGradient id="1ab43hdf6f" x1="105.227" y1="30.134" x2="105.227" y2="42.629" gradientUnits="userSpaceOnUse">
            <stop stop-color="#28B7EB"/>
            <stop offset="1" stop-color="#154992"/>
        </linearGradient>
        <linearGradient id="5kvd2l7p7g" x1="159.267" y1="35.539" x2="159.267" y2="42.71" gradientUnits="userSpaceOnUse">
            <stop stop-color="#28B7EB"/>
            <stop offset="1" stop-color="#154992"/>
        </linearGradient>
        <clipPath id="2wm98curta">
            <path fill="#fff" transform="translate(.413)" d="M0 0h179.091v179.091H0z"/>
        </clipPath>
    </defs>
</svg>
