<svg width="180" height="180" viewBox="0 0 180 180" fill="none" xmlns="http://www.w3.org/2000/svg">
    <g clip-path="url(#dn89jbjc7a)">
        <path d="M92.634 77.597H87.37v5.247h5.264v-5.247z" fill="url(#7g8q013znb)"/>
        <path d="M92.634 90.26H87.37v5.246h5.264V90.26z" fill="url(#aketokwd8c)"/>
        <path d="M128.514 133.244v5.225h-10.548v5.246h15.795v-10.471h-5.247z" fill="url(#qpra6hueed)"/>
        <path d="M165.989 70.106a77.758 77.758 0 0 0-8.507-20.52l9.591-9.591-27.51-27.51-9.591 9.591a77.9 77.9 0 0 0-19.357-8.199C107.294 5.754 99.308.012 90.003.012c-9.304 0-17.289 5.74-20.61 13.864a77.876 77.876 0 0 0-19.364 8.2l-9.592-9.591-27.51 27.51 9.591 9.591a77.768 77.768 0 0 0-8.507 20.52H.455v38.905H14.01a77.788 77.788 0 0 0 8.507 20.519l-9.591 9.591 27.51 27.51 9.592-9.591a78.015 78.015 0 0 0 16.9 7.483v14.555h46.148v-14.557a78.038 78.038 0 0 0 16.895-7.481l9.591 9.592 27.51-27.51-9.591-9.592a77.768 77.768 0 0 0 8.507-20.519h13.557V70.106h-13.557zM107.72 35.73c.138-.181.271-.366.404-.552.087-.122.177-.244.262-.369.142-.206.276-.417.411-.629.06-.094.124-.185.182-.28 23.869 8.118 39.809 30.313 39.809 55.657 0 10.34-2.626 20.236-7.651 29.037v-4.661h-12.071v-8.573h-1.064V59.019c0-10.88-8.851-19.731-19.731-19.731h-3.928c.084-.071.163-.147.246-.22.174-.15.347-.303.516-.459.115-.106.227-.215.34-.324a21.996 21.996 0 0 0 1.981-2.18c.099-.124.198-.248.294-.374zM73.009 21.476l.014-.242a16.917 16.917 0 0 1 .132-1.31c.015-.109.029-.218.046-.327.025-.157.055-.313.084-.469.04-.216.086-.431.135-.646.024-.105.047-.211.073-.316.036-.143.076-.286.115-.43a17.366 17.366 0 0 1 .213-.711C76.04 10.204 82.453 5.26 90.003 5.26c7.546 0 13.958 4.94 16.179 11.755l.132.426c.028.094.054.19.081.284.041.149.082.297.119.447.023.092.043.185.064.278.057.245.108.491.153.738.025.134.05.267.072.402.019.116.034.234.05.352a17.9 17.9 0 0 1 .163 2.333c0 9.38-7.632 17.013-17.014 17.013-9.381 0-17.013-7.632-17.013-17.014 0-.267.008-.533.02-.798zm24.224 23.058-7.23 14.736-7.23-14.736h14.46zM71.027 33.901c.065.107.138.21.206.316.126.197.251.394.383.587.09.133.187.263.28.395.127.176.254.352.385.525.101.133.206.263.31.394a21.88 21.88 0 0 0 1.504 1.705c.15.153.302.303.456.451.118.114.235.228.356.34.163.15.33.296.498.442.087.076.17.156.258.23h-3.928c-9.18 0-16.916 6.303-19.109 14.807a19.702 19.702 0 0 0-.622 4.926v51.589h14.925v33.037c-21.494-9.178-35.717-30.51-35.717-54.087 0-25.39 15.93-47.544 39.815-55.657zm-4.098 125.117a72.8 72.8 0 0 1-15.895-7.514l-1.772-1.117-8.825 8.825-20.09-20.091 8.824-8.824-1.117-1.772a72.588 72.588 0 0 1-9.418-22.718l-.463-2.043H5.7V75.352h12.471l.463-2.043a72.593 72.593 0 0 1 9.419-22.717l1.117-1.773-8.824-8.824 20.09-20.09 8.825 8.824 1.772-1.117a72.74 72.74 0 0 1 16.847-7.825l-.007.084c-.03.282-.051.566-.071.85-.008.119-.02.237-.027.356a22.31 22.31 0 0 0-.03 1.063c0 .045-.004.09-.004.134 0 .04.003.081.004.122.002.362.01.723.03 1.081.008.149.023.295.034.443.019.251.037.502.064.75.017.167.041.332.063.497.03.227.06.454.096.68.028.17.06.34.092.51a21.931 21.931 0 0 0 .247 1.157 21.688 21.688 0 0 0 .45 1.599C56.94 33.287 46.322 41.06 38.73 51.19c-8.35 11.14-12.764 24.408-12.764 38.369 0 13.425 4.11 26.278 11.886 37.169 7.34 10.28 17.372 18.064 29.077 22.581v9.709zm20.45 14.813H72.177V62.414h-5.247v42.947H57.25V59.019c0-7.987 6.498-14.485 14.485-14.485h5.193l10.45 21.301v5.225h5.248v-5.225l10.451-21.3h5.193c7.987 0 14.484 6.497 14.484 14.484v46.342h-9.677V62.414h-5.247v42.947h-1.064v8.573H95.062v6.159H81.621v5.247h5.759v48.491zm36.44-63.223v3.326h-11.805v-3.326h11.805zm-15.988 63.223H92.627V125.34h2.435v25.891h12.768v14.787h.001v7.813zm21.135-22.327a72.789 72.789 0 0 1-15.889 7.512v-7.785h16.322l-.433.273zm-28.657-5.52v-26.803h35.581v26.803h-35.581zm73.99-42.219h-12.471l-.464 2.042a72.589 72.589 0 0 1-9.418 22.718l-1.117 1.772 8.824 8.824-20.09 20.09-7.98-7.98h9.554v-23.13c8.439-11.173 12.898-24.482 12.898-38.543 0-13.895-4.377-27.113-12.656-38.224-7.596-10.195-18.261-18.025-30.196-22.218.052-.16.102-.321.151-.483a24.49 24.49 0 0 0 .304-1.132c.039-.162.078-.324.113-.487.048-.223.092-.448.134-.674.03-.161.061-.322.087-.485.038-.236.07-.474.101-.712.02-.155.042-.309.059-.464.029-.265.049-.532.068-.799.009-.132.023-.263.03-.395.021-.401.034-.805.034-1.21 0-.405-.013-.806-.034-1.205-.006-.102-.016-.203-.023-.305-.021-.3-.044-.6-.076-.897-.002-.026-.003-.052-.006-.077a72.714 72.714 0 0 1 16.841 7.822l1.772 1.117 8.825-8.824 20.09 20.09-8.825 8.824 1.118 1.773a72.601 72.601 0 0 1 9.418 22.717l.463 2.043h12.472v28.412z" fill="url(#qlaoytu84e)"/>
    </g>
    <defs>
        <linearGradient id="7g8q013znb" x1="90.002" y1="77.597" x2="90.002" y2="82.844" gradientUnits="userSpaceOnUse">
            <stop stop-color="#28B7EB"/>
            <stop offset="1" stop-color="#154992"/>
        </linearGradient>
        <linearGradient id="aketokwd8c" x1="90.002" y1="90.259" x2="90.002" y2="95.506" gradientUnits="userSpaceOnUse">
            <stop stop-color="#28B7EB"/>
            <stop offset="1" stop-color="#154992"/>
        </linearGradient>
        <linearGradient id="qpra6hueed" x1="125.863" y1="133.244" x2="125.863" y2="143.715" gradientUnits="userSpaceOnUse">
            <stop stop-color="#28B7EB"/>
            <stop offset="1" stop-color="#154992"/>
        </linearGradient>
        <linearGradient id="qlaoytu84e" x1="90" y1=".012" x2="90" y2="179.078" gradientUnits="userSpaceOnUse">
            <stop stop-color="#28B7EB"/>
            <stop offset="1" stop-color="#154992"/>
        </linearGradient>
        <clipPath id="dn89jbjc7a">
            <path fill="#fff" transform="translate(.455)" d="M0 0h179.091v179.091H0z"/>
        </clipPath>
    </defs>
</svg>
